<svg width="17" height="15" viewBox="0 0 17 15" fill="none" xmlns="http://www.w3.org/2000/svg">
<path d="M1.82087 8.88767L7.46775 14.1595C7.70212 14.3783 8.0115 14.5002 8.33337 14.5002C8.65525 14.5002 8.96462 14.3783 9.199 14.1595L14.8459 8.88767C15.7959 8.00329 16.3334 6.76267 16.3334 5.46579V5.28454C16.3334 3.10017 14.7552 1.23767 12.6021 0.878292C11.1771 0.640792 9.72712 1.10642 8.70837 2.12517L8.33337 2.50017L7.95837 2.12517C6.93962 1.10642 5.48962 0.640792 4.06462 0.878292C1.9115 1.23767 0.333374 3.10017 0.333374 5.28454V5.46579C0.333374 6.76267 0.870874 8.00329 1.82087 8.88767Z" fill="#424242"/>
</svg>
