<svg width="17" height="17" viewBox="0 0 17 17" fill="none" xmlns="http://www.w3.org/2000/svg">
<path d="M11.6666 8.5C11.6666 9.19375 11.6291 9.8625 11.5635 10.5H5.77288C5.70413 9.8625 5.66975 9.19375 5.66975 8.5C5.66975 7.80625 5.70725 7.1375 5.77288 6.5H11.5635C11.6323 7.1375 11.6666 7.80625 11.6666 8.5ZM12.5666 6.5H16.4135C16.5791 7.14062 16.6666 7.80937 16.6666 8.5C16.6666 9.19063 16.5791 9.85938 16.4135 10.5H12.5666C12.6323 9.85625 12.6666 9.1875 12.6666 8.5C12.6666 7.8125 12.6323 7.14375 12.5666 6.5ZM16.0854 5.5H12.4385C12.126 3.50312 11.5073 1.83125 10.7104 0.7625C13.1573 1.40938 15.1479 3.18438 16.0823 5.5H16.0854ZM11.426 5.5H5.90725C6.09788 4.3625 6.39163 3.35625 6.751 2.54063C7.07913 1.80313 7.44475 1.26875 7.79788 0.93125C8.14788 0.6 8.4385 0.5 8.66663 0.5C8.89475 0.5 9.18538 0.6 9.53538 0.93125C9.8885 1.26875 10.2541 1.80313 10.5823 2.54063C10.9448 3.35313 11.2354 4.35938 11.426 5.5ZM4.89475 5.5H1.24788C2.18538 3.18438 4.17288 1.40938 6.62288 0.7625C5.826 1.83125 5.20725 3.50312 4.89475 5.5ZM0.919751 6.5H4.76663C4.701 7.14375 4.66663 7.8125 4.66663 8.5C4.66663 9.1875 4.701 9.85625 4.76663 10.5H0.919751C0.754126 9.85938 0.666626 9.19063 0.666626 8.5C0.666626 7.80937 0.754126 7.14062 0.919751 6.5ZM6.751 14.4563C6.3885 13.6438 6.09788 12.6375 5.90725 11.5H11.426C11.2354 12.6375 10.9416 13.6438 10.5823 14.4563C10.2541 15.1938 9.8885 15.7281 9.53538 16.0656C9.18538 16.4 8.89475 16.5 8.66663 16.5C8.4385 16.5 8.14788 16.4 7.79788 16.0688C7.44475 15.7313 7.07913 15.1969 6.751 14.4594V14.4563ZM4.89475 11.5C5.20725 13.4969 5.826 15.1687 6.62288 16.2375C4.17288 15.5906 2.18538 13.8156 1.24788 11.5H4.89475ZM16.0854 11.5C15.1479 13.8156 13.1604 15.5906 10.7135 16.2375C11.5104 15.1687 12.126 13.4969 12.4416 11.5H16.0885H16.0854Z" fill="#424242"/>
</svg>
